<svg width="25" height="25" viewBox="0 0 25 25" fill="none" xmlns="http://www.w3.org/2000/svg">
<path d="M8.43489 5.14488C9.51309 4.06668 10.9754 3.46095 12.5003 3.46095C14.0251 3.46095 15.4874 4.06668 16.5656 5.14488C17.6438 6.22308 18.2495 7.68544 18.2495 9.21024C18.2495 10.5248 18.4819 11.5582 18.8254 12.366C19.17 13.1765 20.1186 13.453 20.8265 13.977C21.883 14.7591 21.6787 16.4328 20.7999 17.0826C20.7999 17.0826 19.381 18.311 12.5003 18.311C5.61945 18.311 4.20057 17.0826 4.20057 17.0826C3.32176 16.4328 3.1175 14.7591 4.17404 13.977C4.88187 13.453 5.83049 13.1765 6.17511 12.366C6.51861 11.5582 6.75096 10.5248 6.75096 9.21024C6.75096 7.68544 7.35669 6.22308 8.43489 5.14488Z" stroke="#020202" stroke-width="2.475" stroke-linecap="round" stroke-linejoin="round"/>
<path d="M10.4636 21.5417C10.8808 22.3195 11.7017 22.8486 12.6461 22.8486C13.5906 22.8486 14.4115 22.3195 14.8287 21.5417" stroke="#020202" stroke-width="2.475" stroke-linecap="round" stroke-linejoin="round"/>
</svg>
